<svg viewBox="0 0 18 18" xmlns="http://www.w3.org/2000/svg"><g fill="#212121"><path d="M8.965 0A8.96 8.96 0 0 0 0 8.965C0 13.883 3.974 18 8.965 18 13.909 18 18 13.925 18 8.965 18 3.968 13.878 0 8.965 0zm0 16.952c-4.362 0-7.917-3.587-7.917-7.987 0-4.362 3.555-7.918 7.917-7.918 4.4 0 7.987 3.556 7.987 7.918 0 4.4-3.587 7.987-7.987 7.987z"/><path d="M8.964 3A5.97 5.97 0 0 0 3 8.964C3 12.264 5.67 15 8.964 15c1.333 0 2.68-.448 3.699-1.229a.542.542 0 1 0-.66-.86c-.833.638-1.94 1.012-3.04 1.012-2.69 0-4.879-2.229-4.879-4.96 0-2.69 2.19-4.886 4.88-4.886 2.73 0 4.952 2.196 4.952 4.887v.542a1.086 1.086 0 0 1-2.169 0v-2.71a.542.542 0 0 0-1.084 0v.034a2.794 2.794 0 0 0-1.699-.577 2.714 2.714 0 0 0-2.71 2.71 2.714 2.714 0 0 0 2.71 2.712 2.81 2.81 0 0 0 2.087-.933A2.167 2.167 0 0 0 15 9.506v-.542C15 5.666 12.26 3 8.963 3zm0 7.598a1.635 1.635 0 0 1 0-3.268c.92 0 1.699.752 1.699 1.634s-.778 1.634-1.7 1.634z"/></g></svg>