<svg viewBox="0 0 18 18" xmlns="http://www.w3.org/2000/svg"><g fill="#000" fill-rule="nonzero"><path d="M10.6 11.375h-.4V7.437c0-.241-.18-.437-.4-.437H7.4c-.22 0-.4.196-.4.438v1.75c0 .241.18.437.4.437h.4v1.75h-.4c-.22 0-.4.196-.4.438v1.75c0 .241.18.437.4.437h3.2c.22 0 .4-.196.4-.437v-1.75c0-.242-.18-.438-.4-.438zM10 13H8v-.833h.333c.184 0 .334-.187.334-.417v-2.5c0-.23-.15-.417-.334-.417H8V8h1.333v3.75c0 .23.15.417.334.417H10V13zM8.5 3C7.673 3 7 3.673 7 4.5S7.673 6 8.5 6 10 5.327 10 4.5 9.327 3 8.5 3zm0 2a.5.5 0 1 1 .001-1.001A.5.5 0 0 1 8.5 5z"/><path d="M9.036 0C4.118 0 0 3.973 0 8.964c0 1.736.498 3.46 1.407 4.89L.04 17.275a.528.528 0 0 0 .686.685l3.422-1.369A9.181 9.181 0 0 0 9.036 18C14.032 18 18 13.877 18 8.964A8.96 8.96 0 0 0 9.036 0zm0 16.951a8.095 8.095 0 0 1-4.53-1.386.527.527 0 0 0-.494-.055l-2.537 1.015 1.015-2.537a.527.527 0 0 0-.055-.493A8.096 8.096 0 0 1 1.05 8.964c0-4.361 3.587-7.917 7.987-7.917 4.361 0 7.916 3.563 7.916 7.924 0 4.4-3.555 7.98-7.916 7.98z"/></g></svg>