<?xml version="1.0" encoding="UTF-8"?>
<svg version="1.1" viewBox="0 0 18 18" xmlns="http://www.w3.org/2000/svg">
    <g transform="translate(-135 -1402)" fill="none" fill-rule="evenodd">
        <g transform="translate(100 1162)" fill="#212121" fill-rule="nonzero">
            <g transform="translate(35 240)">
                <path d="m16.92 1.0755c-1.4336-1.4339-3.7879-1.4341-5.2216 0l-5.3974 5.3992c-7.031e-5 7.032e-5 -1.0546e-4 1.0549e-4 -1.7578e-4 1.7581e-4l-5.2214 5.2225c-1.4396 1.4399-1.4396 3.7828 0 5.2227 1.4396 1.4399 3.782 1.4399 5.2216 0l5.2212-5.2224c1.055e-4 -1.055e-4 2.461e-4 -2.462e-4 3.516e-4 -3.517e-4l5.3974-5.3991c1.4396-1.4399 1.4396-3.7828 3.51e-5 -5.2227zm-11.365 15.098c-1.0283 1.0285-2.7014 1.0285-3.7297 0-1.0283-1.0285-1.0283-2.702 0-3.7305l5.2216-5.2227c1.1767-1.1769 3.1394-0.98631 4.0651 0.4105l-0.77186 0.77209c-0.47218-0.98652-1.779-1.205-2.5473-0.43649l-5.2216 5.2227c-0.61696 0.61709-0.61696 1.6212 0 2.2383 0.61696 0.61709 1.6208 0.61713 2.2378 0l2.8612-2.8619c0.39519 0.14073 0.8247 0.21717 1.2794 0.21253l-3.3947 3.3955zm3.7297-6.7149c-0.20563 0.20571-0.54025 0.20567-0.74595 0-0.20616-0.2062-0.20616-0.53987 0-0.74611 0.20566-0.20571 0.54028-0.20567 0.74595 0 0.20612 0.20617 0.20616 0.53987 0 0.74611zm-2.5844 2.5849l-2.6372 2.6378c-0.20566 0.20571-0.54028 0.20571-0.74595 0-0.20563-0.20571-0.20566-0.5404 0-0.74611l2.6378-2.6384c0.21002 0.28033 0.45538 0.5289 0.74535 0.7467zm9.4737-6.4918l-5.3974 5.399c-3.51e-5 3.52e-5 -7.03e-5 7.03e-5 -1.054e-4 7.03e-5l-1.758e-4 1.758e-4c-1.1776 1.1777-3.1408 0.98385-4.065-0.41082l0.77189-0.77206c0.47204 0.98635 1.7787 1.2051 2.5471 0.43674 7.03e-5 -7.03e-5 1.406e-4 -1.055e-4 2.109e-4 -1.758e-4l1.758e-4 -1.758e-4 5.3973-5.3989c0.61696-0.61709 0.61696-1.6212 0-2.2383-0.61696-0.61709-1.6209-0.61709-2.2379 3.516e-5l-3.037 3.0382c-0.40722-0.14502-0.83718-0.217-1.2795-0.21253l3.5707-3.5718c1.0213-1.0215 2.7083-1.0216 3.7297 0 1.0283 1.0285 1.0283 2.702 0 3.7306zm-5.0509 0.57577l2.8131-2.8141c0.20566-0.20571 0.54028-0.20567 0.74595 0 0.20566 0.20571 0.20566 0.5404 0 0.74614l-2.8137 2.8146c-0.20862-0.27839-0.45352-0.52739-0.74528-0.7466z"/>
            </g>
        </g>
    </g>
</svg>
