<svg width="160" height="65" clip-rule="evenodd" fill-rule="evenodd" image-rendering="optimizeQuality" shape-rendering="geometricPrecision" text-rendering="geometricPrecision" viewBox="0 0 1605 651" xmlns="http://www.w3.org/2000/svg"><defs><style>.str0{stroke:#4b6ba4;stroke-width:.957726}.fil6{fill:#4b6ba4}.fil1,.fil3,.fil5{fill:#354384;fill-rule:nonzero}.fil3,.fil5{fill:#4b6ba4}.fil3{fill:#55933d}.fil0,.fil2,.fil4{fill:#cd2927;fill-rule:nonzero}.fil0,.fil4{fill:#f2b03f}.fil0{fill:#fff}</style></defs><path class="fil0 str0" d="M699 418c0-16-13-29-28-29-16 0-28 13-28 29v130h-12V418c0-16-12-29-28-29-15 0-28 13-28 29v130h-14V418c0-16-13-29-29-29-15 0-28 13-28 29v126l-55-137c-5-11-15-18-26-18-4 0-7 1-11 3-6 2-11 7-14 13l-31 75-16-8c-4-2-9-3-13-3-6 0-11 1-16 4v-55c0-16-13-29-28-29-16 0-28 13-28 29v51h-49v-51c0-16-13-29-28-29-16 0-28 13-28 29v158c0 15 12 28 28 28 15 0 28-13 28-28v-51h49v51c0 15 12 28 28 28 15 0 28-13 28-28v-56c1 1 2 1 3 2l21 11-14 32c-5 15 2 31 16 37 3 1 7 2 11 2 11 0 21-7 26-18l11-27 78 42c4 2 8 3 13 3 9 0 17-4 23-12 5 7 13 12 22 12h139c15 0 28-12 28-28V418zM1382 389h-53c-15 0-28 13-28 29v33c-17-34-51-57-92-57-53 0-97 41-102 93l-3-3c3-9 5-19 5-29 0-43-32-66-62-66h-49c-15 0-28 13-28 29v133c-4-2-8-3-13-3h-1l-57-141c-3-7-8-12-15-15s-15-3-22 0c-6 2-12 8-15 14l-3 8-54 134h-2c-15 0-28 12-28 28 0 15 13 28 28 28h169c8 0 16-3 21-9 5 6 12 9 20 9h55c10 0 33-2 51-19 7-6 15-17 19-33 18 29 50 47 86 47 41 0 75-23 92-57v34c0 15 13 28 28 28 16 0 28-13 28-28v-71c5 10 15 16 25 16 30 0 62-23 62-66s-32-66-62-66zm-173 154c-25 0-46-21-46-46 0-26 21-47 46-47 26 0 47 21 47 47 0 25-21 46-47 46z"/><path class="fil1" d="M671 560H532c-8 0-15 7-15 16s7 16 15 16h139c9 0 16-7 16-16s-7-16-16-16zm-139 23c-3 0-5-2-5-5s2-5 5-5 6 2 6 5-3 5-6 5zm71 0c-3 0-5-2-5-5s2-5 5-5 6 2 6 5-3 5-6 5zm68 0c-3 0-5-2-5-5s2-5 5-5 5 2 5 5-2 5-5 5z"/><path class="fil1" d="M532 402c-8 0-15 7-15 16v151c3-6 9-10 15-10h16V418c0-9-7-16-16-16zm0 19c-3 0-5-2-5-5s2-6 5-6 6 3 6 6-3 5-6 5zM603 402c-9 0-16 7-16 16v141h32V418c0-9-7-16-16-16zm0 19c-3 0-5-2-5-5s2-6 5-6 6 3 6 6-3 5-6 5zM671 402c-9 0-16 7-16 16v141h16c7 0 13 4 16 10V418c0-9-7-16-16-16zm0 19c-3 0-5-2-5-5s2-6 5-6 5 3 5 6-2 5-5 5z"/><path class="fil2" d="M407 424c-1-2-1-4-1-6l-32 78 28 15 20-50-15-37zM344 570c-3 8 1 17 9 20 2 1 4 2 6 2 6 0 12-4 14-10l16-39-28-14-17 41zm19 8c0 3-2 6-5 6s-5-3-5-6 2-5 5-5 5 2 5 5zM437 412c-3-8-12-12-20-9s-12 12-9 20l47 117 40 21c1 0 3 1 4 2l-62-151zm-14 10c-3 0-6-3-6-6s3-5 6-5 5 2 5 5-2 6-5 6zM494 562l-149-79c-8-4-17-1-21 6-4 8-1 18 6 22l150 79c2 1 4 2 7 2 5 0 11-3 14-9 4-7 1-17-7-21zm-157-60c-3 0-5-2-5-5s2-6 5-6 6 3 6 6-3 5-6 5zm151 82c-3 0-5-3-5-6s2-5 5-5 6 2 6 5-3 6-6 6z"/><path class="fil3" d="M173 504v72c0 9 7 16 16 16 8 0 15-7 15-16v-62h-15c-7 0-13-4-16-10zm21 74c0 3-2 6-5 6s-6-3-6-6 3-5 6-5 5 2 5 5zM189 402c-9 0-16 7-16 16v72c3-6 9-10 16-10h15v-62c0-9-7-16-15-16zm0 20c-3 0-6-3-6-6s3-5 6-5 5 2 5 5-2 6-5 6zM294 402c-9 0-16 7-16 16v62h16c7 0 13 4 16 10v-72c0-9-7-16-16-16zm0 20c-3 0-5-3-5-6s2-5 5-5 5 2 5 5-2 6-5 6zM294 514h-16v62c0 9 7 16 16 16s16-7 16-16v-72c-3 6-9 10-16 10zm0 70c-3 0-5-3-5-6s2-5 5-5 5 2 5 5-2 6-5 6z"/><path class="fil3" d="M294 481H189c-9 0-16 7-16 16 0 8 7 15 16 15h105c9 0 16-7 16-15 0-9-7-16-16-16zm-105 21c-3 0-6-2-6-5s3-6 6-6 5 3 5 6-2 5-5 5zm105 0c-3 0-5-2-5-5s2-6 5-6 5 3 5 6-2 5-5 5z"/><path class="fil2" d="M1365 418c0-7 4-13 10-16h-39c6 3 11 9 11 16v15h28c-6-2-10-8-10-15z"/><path class="fil2" d="M1329 402c-8 0-15 7-15 16v158c0 9 7 16 15 16 9 0 16-7 16-16V418c0-9-7-16-16-16zm0 179c-3 0-5-2-5-5s2-6 5-6 6 3 6 6-3 5-6 5zm0-158c-3 0-5-2-5-5s2-6 5-6 6 3 6 6-3 5-6 5zM1382 402c-8 0-15 7-15 16 0 8 7 15 15 15 7 0 19 4 19 22 0 19-12 22-19 22-8 0-15 7-15 16 0 8 7 15 15 15 20 0 50-14 50-53s-30-53-50-53zm-2 21c-3 0-5-2-5-5s2-6 5-6 6 3 6 6-3 5-6 5zm0 75c-3 0-5-2-5-5s2-6 5-6 6 3 6 6-3 5-6 5z"/><path class="fil4" d="M951 570l-64-158c-3-8-12-12-20-9s-12 12-9 20l64 159c3 6 9 10 15 10 2 0 4-1 6-2 8-3 12-12 8-20zm-78-147c-3 0-6-2-6-5s3-6 6-6 5 3 5 6-2 5-5 5zm64 158c-3 0-6-2-6-5s3-6 6-6 5 3 5 6-2 5-5 5zM872 461l-15-37c-1-2-1-4-1-6l-57 141h33l40-98z"/><path class="fil4" d="M957 560h-8l4 10c2 4 2 9 0 13s-4 7-8 9h12c9 0 16-7 16-16s-7-16-16-16zM921 583l-9-23H788c-9 0-16 7-16 16s7 16 16 16h140c-3-2-6-5-7-9zm-113-2c-3 0-5-2-5-5s2-6 5-6 6 3 6 6-3 5-6 5z"/><path class="fil3" d="M1005 592h39c-6-3-10-10-10-17 1-7 5-12 10-15h-29v16c0 7-4 13-10 16zM1015 418v15h25c-6-3-10-9-10-15 0-7 4-13 10-16h-35c6 3 10 9 10 16z"/><path class="fil3" d="M998 402c-9 0-15 7-15 16v158c0 9 6 16 15 16s16-7 16-16V418c0-9-7-16-16-16zm-1 179c-3 0-6-2-6-5s3-6 6-6 5 3 5 6-2 5-5 5zm0-158c-3 0-6-2-6-5s3-6 6-6 5 3 5 6-2 5-5 5zM1051 477c-8 0-15 7-15 16 0 8 7 15 15 15 3 0 30 1 30 26 0 8-2 15-6 19-7 7-19 7-23 7-8 0-16 6-16 15-1 8 6 16 14 16 1 0 2 1 3 1 8 0 28-2 43-16 8-7 17-20 17-42 0-42-37-57-62-57zm-2 21c-3 0-5-2-5-5s2-6 5-6 6 3 6 6-3 5-6 5zm0 83c-3 0-5-2-5-5s2-6 5-6 6 3 6 6-3 5-6 5z"/><path class="fil3" d="M1047 402c-9 0-16 7-16 16 0 8 7 15 16 15 7 0 18 3 18 22 0 13-3 19-8 21 10 1 21 4 31 10 5-8 9-18 9-31 0-39-30-53-50-53zm2 21c-3 0-5-2-5-5s2-6 5-6 6 3 6 6-3 5-6 5z"/><path class="fil1" d="M1298 477c-1 6-6 11-12 13-2 1-4 1-5 1-6 0-10-2-14-6 3 12 2 24-3 36-12 28-43 41-72 32 5 5 7 13 4 19s-8 10-15 11c44 14 93-6 112-50 7-18 9-37 5-56z"/><path class="fil1" d="M1186 551c-13-6-24-16-30-29-14-29-1-65 28-78 8-4 11-13 8-21-4-8-13-11-21-8-45 21-64 75-43 120 9 20 25 36 45 45h1c8 3 17 0 20-8 4-8 0-17-8-21zm-9-127c3 0 5 3 5 6s-2 5-5 5-6-2-6-5 3-6 6-6zm2 148c-3 0-6-3-6-6s3-5 6-5 5 2 5 5-2 6-5 6z"/><path class="fil1" d="M1296 469c-15-47-66-74-113-59-2 1-4 2-6 2h1c6 0 12 4 15 10 2 4 2 9 1 13-1 2-2 4-3 5h1c31-10 64 8 74 39 2 8 11 13 19 10 9-3 13-11 11-20zm-15 11c-3 0-5-3-5-6s2-5 5-5 6 2 6 5-3 6-6 6z"/><path class="fil5" d="M1382 329l-46-114c0-1 0-2-1-3v-37c0-4 1-7 4-9 2-3 6-4 9-4h37c3 0 6-1 8-4 2-2 3-4 3-8v-15c0-3-1-6-3-8s-5-3-8-3h-197c-4 0-6 1-8 3-3 2-4 5-4 8v15c0 4 1 6 4 8 2 3 4 4 8 4h36c4 0 7 1 9 4 3 2 4 5 4 9v37c0 1 0 2-1 3l-45 114-3 6h-38l-3-6-38-97c-1-1-1-2-1-3v-31c0-4 1-7 3-9 3-3 6-4 9-4h31c2 0 5-1 6-2 2-2 2-4 2-6v-13c0-2 0-4-2-6-1-1-4-2-6-2H984c-3 0-5 1-6 2-2 2-3 4-3 6v13c0 2 1 4 3 6 1 1 3 2 6 2h31c3 0 6 1 9 4 2 2 3 5 3 9v31c0 1 0 2-1 3l-38 97-3 6h-32l-3-6-31-80c-1-1-1-2-1-3v-12c0-3 1-6 3-9 2-2 5-3 9-3h25c2 0 3-1 4-2 1 0 1-2 1-3v-19c0-2 0-3-1-4s-2-1-4-1H817c-1 0-2 0-3 1s-2 2-2 4v19c0 1 1 3 2 3 1 1 2 2 3 2h26c3 0 6 1 8 4 3 2 4 5 4 8v12c0 1-1 2-1 3l-32 80-2 6H168c-41 0-78 17-105 44s-44 64-44 105c0 40 17 78 44 104 27 27 64 44 105 44h1269c41 0 78-17 105-44 27-26 44-64 44-104 0-41-17-78-44-105s-64-44-105-44h-53l-2-6zm-28-120l43 107h40c47 0 88 19 119 49 30 31 49 73 49 119s-19 88-49 118c-31 30-72 49-119 49H168c-47 0-88-19-119-49-30-30-49-72-49-118s19-88 49-119c31-30 72-49 119-49h639l29-73v-2h-19c-6 0-13-3-17-7s-7-10-7-17v-19c0-7 3-13 7-17 4-5 11-7 17-7h139v-10c0-8 3-14 8-19s12-8 20-8h173v-2c0-8 3-16 9-21 6-6 13-9 22-9h197c8 0 16 3 21 9 6 5 9 13 9 21v15c0 9-3 16-9 22-5 6-13 9-21 9h-31v28zm-166-28c-4 0-7-1-10-1 0 6-3 12-7 16-5 5-12 8-20 8h-24v22l35 90h13l43-107v-28h-30zm-204 23h-5v13c0 7-2 13-7 17-4 4-10 7-17 7h-18v2l29 73h6l36-90v-22h-24z"/><path class="fil5" d="M1286 0c17 0 33 7 44 18s18 27 18 44-7 33-18 44-27 18-44 18-32-7-44-18c-11-11-18-27-18-44s7-33 18-44c12-11 27-18 44-18zm30 32c-7-8-18-13-30-13s-22 5-30 13c-8 7-13 18-13 30s5 23 13 30c8 8 18 13 30 13s23-5 30-13c8-7 13-18 13-30s-5-23-13-30z"/><path class="fil6" d="M1262 326h48l-24-71-24 71z"/><path class="fil5" d="M1276 316h21l-11-31-10 31zm34 19h-61l4-12 24-71c1-2 2-3 3-4 2-2 4-2 6-2s4 0 6 2c2 1 3 3 3 5l24 70 4 12h-13zM1067 40c16 0 31 7 41 17 11 11 17 25 17 41s-6 30-17 41c-10 10-25 17-41 17-15 0-30-7-40-17-11-11-17-25-17-41s6-30 17-41c10-10 25-17 40-17zm28 31c-7-7-17-11-28-11-10 0-20 4-27 11s-11 16-11 27 4 20 11 27 17 12 27 12c11 0 21-5 28-12s11-16 11-27-4-20-11-27z"/><path class="fil6" d="M1088 326l-20-60h-1l-20 60h41z"/><path class="fil5" d="M1074 316l-7-21-7 21h14zm3-53l20 60 4 12h-67l4-12 20-60c1-2 2-4 4-5 1-1 3-2 5-2 3 0 5 1 6 2 2 1 3 3 4 5zM886 81c16 0 30 6 40 16s16 24 16 40c0 15-6 29-16 40-10 10-24 16-40 16-15 0-29-6-39-16-11-11-17-25-17-40 0-16 6-30 17-40 10-10 24-16 39-16zm26 30c-6-7-16-11-26-11s-19 4-26 11c-7 6-11 16-11 26s4 19 11 26 16 11 26 11 20-4 26-11c7-7 11-16 11-26s-4-20-11-26z"/><path class="fil6" d="M903 326l-17-50-17 50h34z"/><path class="fil5" d="M890 316l-4-10-3 10h7zm5-42l17 49 4 12h-60l4-12 17-49c1-2 2-4 3-5 2-2 4-2 6-2s4 0 6 2c2 1 3 3 3 5z"/></svg>