<svg viewBox="0 0 12 18" xmlns="http://www.w3.org/2000/svg"><g fill="#000" fill-rule="nonzero"><path d="M6 0C2.692 0 0 2.839 0 6.328c0 1.179.31 2.33.896 3.328l4.762 8.095c.092.155.252.249.425.249h.004a.495.495 0 0 0 .425-.256l4.642-8.174A6.585 6.585 0 0 0 12 6.328C12 2.838 9.308 0 6 0zm4.295 9.029l-4.22 7.43L1.746 9.1a5.482 5.482 0 0 1-.752-2.772c0-2.908 2.25-5.28 5.007-5.28s5.003 2.372 5.003 5.28c0 .954-.247 1.888-.708 2.7z"/><path d="M6 3C4.346 3 3 4.346 3 6c0 1.644 1.324 3 3 3 1.697 0 3-1.374 3-3 0-1.654-1.346-3-3-3zm0 5.007A2.008 2.008 0 0 1 3.993 6c0-1.103.904-2.007 2.007-2.007S8.003 4.897 8.003 6c0 1.09-.877 2.007-2.003 2.007z"/></g></svg>