<svg viewBox="0 0 18 18" xmlns="http://www.w3.org/2000/svg"><g fill="#212121" fill-rule="nonzero"><path d="M16.541 13.314l-2.221-2.222a1.569 1.569 0 0 0-2.221 0l-1.01 1.01a1.189 1.189 0 0 1-1.682 0L5.894 8.6a1.19 1.19 0 0 1 0-1.684l1.01-1.01a1.571 1.571 0 0 0 0-2.223L4.684 1.461a1.569 1.569 0 0 0-2.221 0l-.74.74c-2.16 1.996-2.406 5.743-.067 8.083l6.068 6.06c2.115 2.117 5.69 2.321 8.076-.067l.74-.74a1.574 1.574 0 0 0 0-2.223zM3.203 2.202a.524.524 0 0 1 .74 0l2.221 2.223a.524.524 0 0 1 0 .74l-.37.37-2.961-2.963.37-.37zm5.261 13.402l-6.069-6.06a4.628 4.628 0 0 1-.288-6.216l2.95 2.952a2.237 2.237 0 0 0 .098 3.062l3.511 3.501c.84.84 2.179.875 3.059.098l2.95 2.952a4.611 4.611 0 0 1-6.211-.289zm7.336-.808l-.37.37-2.961-2.963.37-.37a.523.523 0 0 1 .74 0l2.221 2.222a.525.525 0 0 1 0 .741z"/><path d="M16.5 0h-6C9.673 0 9 .673 9 1.5v4c0 .827.673 1.5 1.5 1.5h.5v1.5a.5.5 0 0 0 .854.353L13.707 7H16.5c.827 0 1.5-.673 1.5-1.5v-4c0-.827-.673-1.5-1.5-1.5zm.5 5.5a.5.5 0 0 1-.5.5h-3a.5.5 0 0 0-.354.146L12 7.293V6.5a.5.5 0 0 0-.5-.5h-1a.5.5 0 0 1-.5-.5v-4a.5.5 0 0 1 .5-.5h6a.5.5 0 0 1 .5.5v4z"/><path d="M15.5 2h-4a.5.5 0 0 0 0 1h4a.5.5 0 0 0 0-1zM13.5 4h-2a.5.5 0 0 0 0 1h2a.5.5 0 0 0 0-1z"/></g></svg>