<svg viewBox="0 0 113 113" xmlns="http://www.w3.org/2000/svg"><g fill="#fff" fill-rule="nonzero"><path d="M85.181 54.451l-41.25-28.125a1.875 1.875 0 1 0-2.93 1.549v56.25a1.873 1.873 0 0 0 2.93 1.55l41.25-28.126a1.874 1.874 0 0 0 0-3.097zM44.75 80.576V31.424L80.797 56 44.75 80.576z"/><path d="M56.5 0C25.346 0 0 25.346 0 56.5S25.346 113 56.5 113 113 87.654 113 56.5 87.654 0 56.5 0zm0 109.23c-29.077 0-52.733-23.657-52.733-52.733S27.424 3.764 56.5 3.764s52.733 23.657 52.733 52.733S85.576 109.23 56.5 109.23z"/></g></svg>