<svg viewBox="0 0 70 70" xmlns="http://www.w3.org/2000/svg"><g fill="#9FA3A7" opacity=".6"><path d="M64.355 36.129V20.115a3.383 3.383 0 0 0 2.258-3.18v-2.258a3.391 3.391 0 0 0-3.387-3.387H50.807V7.903a3.391 3.391 0 0 0-3.387-3.387H30.485V3.387A3.391 3.391 0 0 0 27.098 0H24.84a3.391 3.391 0 0 0-3.387 3.387v7.903H6.776a3.391 3.391 0 0 0-3.387 3.387v2.258c0 1.47.947 2.712 2.258 3.18v16.014H0v24.839h2.26V70h9.032v-9.032H58.71V70h9.032v-9.032H70V36.129h-5.645zm-4.516-22.581h3.387a1.13 1.13 0 0 1 1.129 1.129v2.258a1.13 1.13 0 0 1-1.129 1.13h-3.387v-4.517zm0 6.774h2.258v11.29h-2.258v-11.29zm-6.774-6.774h4.516v4.516h-4.516v-4.516zm-2.258 0v4.516H46.29v-4.516h4.516zM30.484 6.774h16.935a1.13 1.13 0 0 1 1.129 1.129v3.387H30.483V6.774zm13.548 6.774v4.516h-4.516v-4.516h4.516zm-13.548 0h6.774v4.516h-6.774v-4.516zM23.709 3.387a1.13 1.13 0 0 1 1.13-1.129h2.258a1.13 1.13 0 0 1 1.129 1.129v14.677h-4.517V3.387zm3.388 16.935v2.258h-2.259v-2.258h2.259zm-7.904-6.774h2.258v4.516h-2.258v-4.516zm-6.774 0h4.516v4.516H12.42v-4.516zm0 6.774h10.162v4.516h2.258v4.516h2.258v-4.516h2.258v-4.516H57.58v11.29H12.42v-11.29zm-6.774-5.645a1.13 1.13 0 0 1 1.129-1.13h3.387v4.517H6.774a1.13 1.13 0 0 1-1.13-1.13v-2.257zm4.516 5.645v11.29H7.903v-11.29h2.258zM9.032 67.741H4.516v-6.774h4.516v6.774zm2.258-9.032H2.258V38.386h9.032v20.323zm45.161-20.323v20.323H13.548V38.386h38.387v-2.258H7.903v-2.259h54.194v2.259h-7.903v2.258h2.258zm9.032 29.355h-4.516v-6.775h4.516v6.775zm2.258-9.033H58.71V38.385h9.032v20.323z"/><path d="M21.5 45c-3.033 0-5.5 2.467-5.5 5.5s2.467 5.5 5.5 5.5 5.5-2.467 5.5-5.5-2.467-5.5-5.5-5.5zm0 8.8c-1.82 0-3.3-1.48-3.3-3.3s1.48-3.3 3.3-3.3 3.3 1.48 3.3 3.3-1.48 3.3-3.3 3.3zM32 56h7V40h-7v16zm2.333-13.714h2.334v11.429h-2.334V42.286zM40 56h7V40h-7v16zm2.333-13.714h2.334v11.429h-2.334V42.286z"/></g></svg>