<svg viewBox="0 0 82 57" xmlns="http://www.w3.org/2000/svg"><g fill="#C6C8CB"><path d="M19 44a4 4 0 1 0 0 8 4 4 0 0 0 0-8zm0 5.333a1.333 1.333 0 1 1 0-2.666 1.333 1.333 0 0 1 0 2.666zM63 44a4 4 0 1 0 0 8 4 4 0 0 0 0-8zm0 5.333a1.333 1.333 0 1 1 0-2.666 1.333 1.333 0 0 1 0 2.666z"/><path d="M80.958 24.11l-9.415-10.528a4.112 4.112 0 0 0-3.073-1.368H56.033V4.071c-.003-2.247-1.837-4.068-4.1-4.07H4.1C1.836.001.002 1.823 0 4.07v35.287c0 .36.144.705.4.96.256.254.604.397.967.397h1.366v4.071c.003 2.248 1.837 4.07 4.1 4.072h2.843C10.349 53.53 14.38 57 19.133 57s8.784-3.47 9.458-8.142h24.818C54.082 53.53 58.113 57 62.866 57s8.784-3.47 9.458-8.142h5.575c2.263-.003 4.098-1.824 4.1-4.072V26.817a4.051 4.051 0 0 0-1.042-2.706zM2.733 37.999V4.071c0-.75.612-1.356 1.367-1.357h47.833c.754 0 1.366.608 1.366 1.357v33.928H2.732zm6.943 8.143H6.833a1.363 1.363 0 0 1-1.367-1.357v-4.072h6.985a9.451 9.451 0 0 0-2.775 5.429zm9.457 8.143c-3.774 0-6.833-3.038-6.833-6.786 0-3.748 3.06-6.786 6.833-6.786 3.774 0 6.833 3.038 6.833 6.786-.004 3.746-3.061 6.781-6.833 6.786zM32.8 46.142h-4.21a9.451 9.451 0 0 0-2.774-5.429H32.8v5.429zm12.3 0h-9.567v-5.429H45.1v5.429zm8.31 0h-5.577v-5.429h8.351a9.451 9.451 0 0 0-2.775 5.429zm9.457 8.143c-3.774 0-6.834-3.038-6.834-6.786 0-3.748 3.06-6.786 6.834-6.786 3.774 0 6.833 3.038 6.833 6.786-.004 3.746-3.061 6.781-6.833 6.786zm16.4-9.5a1.364 1.364 0 0 1-1.367 1.357h-5.576c-.681-4.668-4.707-8.135-9.457-8.143h-6.834V14.928H61.5v13.571c.003 2.248 1.837 4.069 4.1 4.071h13.667v12.214zm0-14.93H65.6a1.363 1.363 0 0 1-1.367-1.356V14.928h4.237c.392-.003.767.162 1.028.453l9.418 10.532c.224.248.349.57.35.902v3.04z"/></g></svg>