<svg viewBox="0 0 77 75" xmlns="http://www.w3.org/2000/svg"><path d="M23.103 17.551a70.152 70.152 0 0 0 30.521.004 1 1 0 0 0 .8-1.085c-.717-6.861-5.613-12.49-11.852-14.278V1.001a1.002 1.002 0 0 0-2.006 0v.768a15.073 15.073 0 0 0-2.196-.179c-.742 0-1.47.073-2.192.178V1a1.002 1.002 0 0 0-2.006 0v1.19c-6.236 1.787-11.135 7.417-11.85 14.279-.054.504.284.97.78 1.081zm11.07-13.262v3.1a1.002 1.002 0 0 0 2.006 0V3.787c.72-.122 1.451-.196 2.196-.196.744 0 1.474.074 2.192.195v3.602a1.002 1.002 0 0 0 2.006 0v-3.1c4.942 1.641 8.831 6.065 9.736 11.503a68.34 68.34 0 0 1-27.873 0c.906-5.437 4.794-9.86 9.737-11.502zm10.41 10.412a28.536 28.536 0 0 1-12.42 0 1.002 1.002 0 0 1-.76-1.195c.121-.54.66-.877 1.196-.759 3.792.845 7.767.844 11.546 0a1 1 0 1 1 .437 1.954zm-22.935 7.374c.02-.65.077-2.628 1.5-3.163 1.405-.529 2.839.896 3.112 1.187a1 1 0 0 1-.047 1.415 1.007 1.007 0 0 1-1.419-.047c-.277-.293-.694-.586-.915-.654-.068.129-.2.485-.226 1.322-.102 3.474 2.596 4.411 2.623 4.421.317.105.56.361.65.683l.043.157c.017.06.027.122.033.184.767 9.124 7.993 12.076 11.372 12.076s10.605-2.952 11.372-12.076a1.01 1.01 0 0 1 .032-.181l.043-.157c.089-.323.333-.58.65-.686.105-.037 2.723-.995 2.623-4.421-.024-.836-.156-1.191-.225-1.321-.222.07-.65.371-.916.654a1.005 1.005 0 0 1-1.419.047 1 1 0 0 1-.047-1.415c.272-.292 1.703-1.718 3.113-1.187 1.422.536 1.48 2.513 1.5 3.163.101 3.455-1.929 5.378-3.399 6.125-1.002 9.276-8.342 13.454-13.327 13.454-4.986 0-12.326-4.177-13.327-13.453-1.47-.75-3.501-2.672-3.4-6.127zm18.258-.193c-.293 0-.57.127-.761.349-.051.06-.074.134-.11.203H37.71c-.035-.069-.058-.143-.109-.203a1.005 1.005 0 0 0-.761-.35h-7.906a1.005 1.005 0 0 0-1.003 1.019c.017.935.178 4.074 1.557 5.192.88.714 2.254 1.157 3.587 1.157 1.274 0 2.342-.402 3.01-1.133.723-.79 1.204-2.449 1.48-3.68h1.617c.275 1.231.756 2.89 1.48 3.68.668.731 1.738 1.133 3.01 1.133 1.332 0 2.706-.443 3.587-1.157 1.378-1.118 1.54-4.257 1.557-5.192a1.002 1.002 0 0 0-1.003-1.018h-7.907zm-5.303 4.885c-.28.306-.836.48-1.528.48-.866 0-1.799-.284-2.321-.708-.346-.28-.63-1.464-.753-2.656h5.63c-.26 1.175-.65 2.472-1.028 2.884zm11.39-.227c-.522.423-1.455.709-2.32.709-.693 0-1.25-.176-1.53-.482-.376-.412-.768-1.71-1.026-2.883h5.628c-.123 1.192-.406 2.375-.752 2.656zm24.978 15.47a104.926 104.926 0 0 1-30.888 5.168V71.29a1.002 1.002 0 0 1-2.006 0V50.8a104.732 104.732 0 0 1-22.64-2.534.966.966 0 0 1-.235-.05 105.336 105.336 0 0 1-9.387-2.568l.564 7.742a1.001 1.001 0 0 1-.928 1.071l-.074.002c-.521 0-.96-.401-1-.928l-.673-9.24a1.002 1.002 0 0 1 1.325-1.02 102.967 102.967 0 0 0 10.045 2.851c2.134-3.388 5.599-5.96 10.325-7.658l-.062-1.047a1.002 1.002 0 0 1 .942-1.058c.547-.048 1.028.388 1.06.94l.258 4.336 2.997-1.07a1 1 0 1 1 .677 1.885l-4.258 1.521a1 1 0 0 1-.89-.107 1.002 1.002 0 0 1-.449-.775l-.15-2.536c-3.778 1.44-6.547 3.426-8.38 6.043a102.926 102.926 0 0 0 20.935 2.198v-2.61a1 1 0 0 1 .995-1c5.924-.04 11.803-.603 17.598-1.648-1.462-1.17-3.28-2.197-5.318-2.992l-.152 2.545a1 1 0 0 1-1.339.882l-4.256-1.522a1 1 0 1 1 .677-1.885l2.995 1.071.258-4.336c.032-.552.506-.987 1.06-.94.553.033.975.507.942 1.058l-.062 1.041c3.076 1.115 5.762 2.726 7.675 4.604a103.177 103.177 0 0 0 12.566-3.418.999.999 0 0 1 1.326.994l-.637 13.445c-.026.553-.49.975-1.05.953a1.002 1.002 0 0 1-.954-1.047l.568-11.984zm4.847 15.554c-.896-.898-2.298-1.335-4.287-1.335-1.99 0-3.392.437-4.287 1.335-1.198 1.202-1.188 2.889-1.18 4.377v6.946c0 3.008 2.453 5.455 5.467 5.455s5.466-2.447 5.466-5.455l.001-6.946c.008-1.488.018-3.175-1.18-4.377zm-.825 4.366v6.957a3.461 3.461 0 0 1-3.461 3.454 3.463 3.463 0 0 1-3.156-2.05h2.044c.553 0 1.003-.449 1.003-1.001s-.45-1.001-1.003-1.001h-2.35v-1.69h2.35c.553 0 1.003-.448 1.003-1s-.45-1.002-1.003-1.002h-2.35v-1.822h2.35c.553 0 1.003-.449 1.003-1.001s-.45-1.001-1.003-1.001h-2.332c.04-.742.171-1.388.578-1.797.493-.494 1.457-.745 2.865-.745 1.408 0 2.372.25 2.864.745.61.61.604 1.749.598 2.954zM5.834 55.57c-2.13 0-3.627.464-4.58 1.42-1.271 1.277-1.261 3.083-1.253 4.677v7.514C.002 72.39 2.619 75 5.834 75s5.832-2.61 5.832-5.82v-7.514c.01-1.594.02-3.4-1.253-4.676-.95-.956-2.45-1.42-4.578-1.42zm0 17.428a3.826 3.826 0 0 1-3.825-3.817l-.001-7.525c-.007-1.32-.014-2.569.669-3.254.548-.55 1.61-.831 3.157-.831s2.609.28 3.158.83c.475.477.613 1.228.653 2.084H7.037a1.002 1.002 0 1 0 0 2.001H9.66v2.136H7.037c-.554 0-1.003.449-1.003 1.001s.449 1.001 1.003 1.001h2.622v1.992H7.037a1.002 1.002 0 1 0 0 2.002h2.336a3.826 3.826 0 0 1-3.539 2.38z" fill="#BCC0C7"/></svg>